<svg width="30" height="30" viewBox="0 0 30 30" fill="none" xmlns="http://www.w3.org/2000/svg">
<path d="M3.75 26.25C3.0625 26.25 2.47396 26.0052 1.98438 25.5156C1.49479 25.026 1.25 24.4375 1.25 23.75V7.5H3.75V23.75H25V26.25H3.75ZM8.75 21.25C8.0625 21.25 7.47396 21.0052 6.98438 20.5156C6.49479 20.026 6.25 19.4375 6.25 18.75V5C6.25 4.3125 6.49479 3.72396 6.98438 3.23438C7.47396 2.74479 8.0625 2.5 8.75 2.5H15L17.5 5H26.25C26.9375 5 27.526 5.24479 28.0156 5.73438C28.5052 6.22396 28.75 6.8125 28.75 7.5V18.75C28.75 19.4375 28.5052 20.026 28.0156 20.5156C27.526 21.0052 26.9375 21.25 26.25 21.25H8.75ZM8.75 18.75H26.25V7.5H16.4688L13.9688 5H8.75V18.75Z" fill="#34246E"/>
</svg>
