<svg width="30" height="30" viewBox="0 0 30 30" fill="none" xmlns="http://www.w3.org/2000/svg">
<path d="M22.5 18.75V16.25H25C25.3542 16.25 25.651 16.3698 25.8906 16.6094C26.1302 16.849 26.25 17.1458 26.25 17.5C26.25 17.8542 26.1302 18.151 25.8906 18.3906C25.651 18.6302 25.3542 18.75 25 18.75H22.5ZM22.5 23.75V21.25H25C25.3542 21.25 25.651 21.3698 25.8906 21.6094C26.1302 21.849 26.25 22.1458 26.25 22.5C26.25 22.8542 26.1302 23.151 25.8906 23.3906C25.651 23.6302 25.3542 23.75 25 23.75H22.5ZM17.5 25C16.8125 25 16.224 24.7552 15.7344 24.2656C15.2448 23.776 15 23.1875 15 22.5H12.5V17.5H15C15 16.8125 15.2448 16.224 15.7344 15.7344C16.224 15.2448 16.8125 15 17.5 15H21.25V25H17.5ZM8.75 21.25C7.375 21.25 6.19792 20.7604 5.21875 19.7812C4.23958 18.8021 3.75 17.625 3.75 16.25C3.75 14.875 4.23958 13.6979 5.21875 12.7188C6.19792 11.7396 7.375 11.25 8.75 11.25H10.625C11.1458 11.25 11.5885 11.0677 11.9531 10.7031C12.3177 10.3385 12.5 9.89583 12.5 9.375C12.5 8.85417 12.3177 8.41146 11.9531 8.04688C11.5885 7.68229 11.1458 7.5 10.625 7.5H6.25C5.89583 7.5 5.59896 7.38021 5.35938 7.14062C5.11979 6.90104 5 6.60417 5 6.25C5 5.89583 5.11979 5.59896 5.35938 5.35938C5.59896 5.11979 5.89583 5 6.25 5H10.625C11.8333 5 12.8646 5.42708 13.7188 6.28125C14.5729 7.13542 15 8.16667 15 9.375C15 10.5833 14.5729 11.6146 13.7188 12.4688C12.8646 13.3229 11.8333 13.75 10.625 13.75H8.75C8.0625 13.75 7.47396 13.9948 6.98438 14.4844C6.49479 14.974 6.25 15.5625 6.25 16.25C6.25 16.9375 6.49479 17.526 6.98438 18.0156C7.47396 18.5052 8.0625 18.75 8.75 18.75H11.25V21.25H8.75Z" fill="#393939"/>
</svg>
