<svg width="30" height="30" viewBox="0 0 30 30" fill="none" xmlns="http://www.w3.org/2000/svg">
<g clip-path="url(#clip0_88_6169)">
<path d="M12.5 15C12.5 15.663 12.7634 16.2989 13.2322 16.7678C13.7011 17.2366 14.337 17.5 15 17.5C15.663 17.5 16.2989 17.2366 16.7678 16.7678C17.2366 16.2989 17.5 15.663 17.5 15C17.5 14.337 17.2366 13.7011 16.7678 13.2322C16.2989 12.7634 15.663 12.5 15 12.5C14.337 12.5 13.7011 12.7634 13.2322 13.2322C12.7634 13.7011 12.5 14.337 12.5 15Z" stroke="#34246E" stroke-width="2" stroke-linecap="round" stroke-linejoin="round"/>
<path d="M26.25 15C23.25 20 19.5 22.5 15 22.5C10.5 22.5 6.75 20 3.75 15C6.75 10 10.5 7.5 15 7.5C19.5 7.5 23.25 10 26.25 15Z" stroke="#34246E" stroke-width="2" stroke-linecap="round" stroke-linejoin="round"/>
</g>
<defs>
<clipPath id="clip0_88_6169">
<rect width="30" height="30" fill="white"/>
</clipPath>
</defs>
</svg>
