<svg width="70" height="70" viewBox="0 0 70 70" fill="none" xmlns="http://www.w3.org/2000/svg">
<path d="M17.0625 49.875C19.5416 47.9792 22.3125 46.4844 25.375 45.3907C28.4375 44.2969 31.6458 43.75 35 43.75C38.3541 43.75 41.5625 44.2969 44.625 45.3907C47.6875 46.4844 50.4583 47.9792 52.9375 49.875C54.6389 47.882 55.9635 45.6216 56.9114 43.0938C57.8593 40.566 58.3333 37.8681 58.3333 35C58.3333 28.5348 56.0607 23.0296 51.5156 18.4844C46.9705 13.9393 41.4653 11.6667 35 11.6667C28.5347 11.6667 23.0295 13.9393 18.4844 18.4844C13.9392 23.0296 11.6666 28.5348 11.6666 35C11.6666 37.8681 12.1406 40.566 13.0885 43.0938C14.0364 45.6216 15.3611 47.882 17.0625 49.875ZM27.7448 34.9636C25.776 32.9948 24.7916 30.5764 24.7916 27.7084C24.7916 24.8403 25.776 22.4219 27.7448 20.4532C29.7135 18.4844 32.1319 17.5 35 17.5C37.868 17.5 40.2864 18.4844 42.2552 20.4532C44.2239 22.4219 45.2083 24.8403 45.2083 27.7084C45.2083 30.5764 44.2239 32.9948 42.2552 34.9636C40.2864 36.9323 37.868 37.9167 35 37.9167C32.1319 37.9167 29.7135 36.9323 27.7448 34.9636ZM35 64.1667C30.9653 64.1667 27.1736 63.4011 23.625 61.8698C20.0764 60.3386 16.9896 58.2605 14.3646 55.6355C11.7396 53.0105 9.66144 49.9236 8.13019 46.375C6.59894 42.8264 5.83331 39.0348 5.83331 35C5.83331 30.9653 6.59894 27.1736 8.13019 23.625C9.66144 20.0764 11.7396 16.9896 14.3646 14.3646C16.9896 11.7396 20.0764 9.6615 23.625 8.13025C27.1736 6.599 30.9653 5.83337 35 5.83337C39.0347 5.83337 42.8264 6.599 46.375 8.13025C49.9236 9.6615 53.0104 11.7396 55.6354 14.3646C58.2604 16.9896 60.3385 20.0764 61.8698 23.625C63.401 27.1736 64.1666 30.9653 64.1666 35C64.1666 39.0348 63.401 42.8264 61.8698 46.375C60.3385 49.9236 58.2604 53.0105 55.6354 55.6355C53.0104 58.2605 49.9236 60.3386 46.375 61.8698C42.8264 63.4011 39.0347 64.1667 35 64.1667Z" fill="#34246E"/>
</svg>
